<?xml version="1.0" standalone="yes"?>
<svg xmlns="http://www.w3.org/2000/svg" width="2834" height="668">
<path style="fill:#ffffff; stroke:none;" d="M0 0L0 668L2834 668L2834 0L0 0z"/>
<path style="fill:#298ff5; stroke:none;" d="M2268 279L2268 359C2277.21 355.102 2285.13 346.746 2293 340.65C2310.75 326.913 2328.22 312.813 2346 299.119C2353.75 293.152 2364.15 280.974 2374 279.228C2396.84 275.176 2423.78 279 2447 279L2597 279C2639.33 279 2680.79 281.127 2710.54 245C2753.98 192.231 2728.85 111.074 2664 91.0255C2632.26 81.2143 2592.9 87 2560 87L2357 87C2318.37 87 2270.26 79.3442 2234 94.8727C2158.84 127.059 2157.53 241.102 2235 271.796C2245.44 275.932 2256.73 278.767 2268 279z"/>
<path style="fill:#ffffff; stroke:none;" d="M2330 164.638C2306.56 171.413 2316.86 208.229 2340 202.072C2365.13 195.386 2354.63 157.518 2330 164.638M2449 164.638C2425.31 171.485 2435.5 208.399 2459 202.071C2483.79 195.394 2473.62 157.523 2449 164.638M2568 164.533C2544.51 170.242 2553.62 207.609 2577 202.319C2602.54 196.538 2593.24 158.401 2568 164.533z"/>
<path style="fill:#298ff5; stroke:none;" d="M860 215L860 281L931 281L931 215L860 215M394 221L394 573L465 573L465 221L394 221M1875 223L1875 573L1908 573L1908 223L1875 223M1996 223L1996 573L2029 573L2029 454C2039.08 454 2059.95 449.994 2068.71 455.028C2077.47 460.059 2084.92 474.148 2091.2 482C2107.7 502.623 2124.33 523.179 2140.58 544C2146.91 552.111 2154.83 567.156 2164.04 571.972C2173.83 577.094 2194.98 573 2206 573L2178.8 538L2127.6 474L2107.6 449L2100.68 438L2107.2 428L2123.88 407L2174.65 343L2196 314L2168 314C2164.24 314 2158.81 313.031 2155.44 315.028C2147.25 319.879 2140.71 332.618 2134.8 340C2119.09 359.635 2103.47 379.335 2087.8 399C2082.38 405.81 2076.33 417.592 2068.71 421.972C2059.95 427.006 2039.08 423 2029 423L2029 223L1996 223M102 238L102 573L175 573L175 469C217.846 469 262.32 473.599 300 449.135C363.134 408.146 366.737 308.26 307 262.654C274.361 237.736 238.069 238 199 238L102 238M1280 238L1280 270L1384 270L1384 573L1418 573L1418 270L1522 270L1522 238L1280 238z"/>
<path style="fill:#ffffff; stroke:none;" d="M175 306L175 401C199.096 401 232.488 406.985 254 394.07C283.725 376.224 282.123 326.566 251 310.992C229.785 300.377 198.106 306 175 306z"/>
<path style="fill:#298ff5; stroke:none;" d="M733 551L739.564 571.972L755 573L794 573L794 314L741 314L735 337C727.592 333.219 721.332 327.341 714 323.312C695.455 313.121 674.245 307.008 653 307C631.026 306.992 610.234 310.621 590 319.424C514.052 352.466 491.765 456.648 537.029 523C566.879 566.758 620.383 586.698 672 578.725C695.008 575.172 714.525 564.683 733 551M1060 345L1059 345C1055.92 337.481 1051.84 319.871 1045.3 315.028C1042.22 312.749 1035.63 314 1032 314L997 314L997 573L1068 573L1068 466C1068 445.325 1065.53 423.474 1073.87 404C1085.63 376.544 1126.23 357.334 1152 379.213C1170.04 394.529 1169 418.491 1169 440L1169 573L1240 573L1240 443C1240 410.168 1240.93 376.849 1222.56 348C1196.32 306.785 1140.68 299.304 1098 317.012C1084.82 322.48 1066.81 331.917 1060 345M1758 529L1762 573L1790 573L1790 314L1763 314L1759 359C1737.69 335.866 1714.59 318.002 1683 311.804C1658.94 307.085 1633.49 307.747 1610 315.025C1590.07 321.201 1571.71 332.24 1557 347C1543.1 360.948 1532.58 378.314 1526.35 397C1511.42 441.835 1518.79 496.779 1550.29 533C1603.29 593.939 1708.14 594.678 1758 529M860 314L860 573L931 573L931 314L860 314z"/>
<path style="fill:#ffffff; stroke:none;" d="M1649 341.424C1617.12 345.612 1589.18 357.165 1570.52 385C1523.66 454.88 1578.75 556.03 1665 545.714C1705.72 540.844 1740.07 515.312 1751.57 475C1769.96 410.576 1722.19 331.81 1649 341.424M649 373.425C636.323 375.151 624.519 378.284 614 385.921C582.184 409.017 576.033 458.651 601.326 489C617.143 507.979 641.843 515.85 666 512.711C675.459 511.481 684.892 508.184 693 503.185C752.831 466.299 721.137 363.606 649 373.425z"/>
</svg>
