<svg version="1.1" id="Layer_1" xmlns="http://www.w3.org/2000/svg" xmlns:xlink="http://www.w3.org/1999/xlink" x="0px" y="0px"
	 width="50px" viewBox="0 0 50 208" enable-background="new 0 0 50 208" xml:space="preserve">
<path fill="transparent" opacity="1.000000" stroke="none" 
	d="
M1902.000000,669.000000 
	C1268.000000,669.000000 634.500000,669.000000 1.000000,669.000000 
	C1.000000,446.333344 1.000000,223.666672 1.000000,1.000000 
	C945.666687,1.000000 1890.333374,1.000000 2835.000000,1.000000 
	C2835.000000,223.666672 2835.000000,446.333344 2835.000000,669.000000 
	C2524.166748,669.000000 2213.333252,669.000000 1902.000000,669.000000 
M2269.048340,358.670380 
	C2270.070068,358.461121 2271.092041,358.251831 2272.735840,357.763733 
	C2286.061035,347.436554 2299.415039,337.145905 2312.704834,326.773529 
	C2331.170898,312.361145 2349.675537,297.995087 2367.944336,283.335815 
	C2371.072021,280.826202 2374.057373,279.956055 2377.846680,279.958435 
	C2463.164551,280.012573 2548.482422,280.019165 2633.800293,279.957489 
	C2639.565674,279.953339 2645.369385,279.655457 2651.089111,278.954865 
	C2673.788818,276.174438 2692.799072,266.202026 2708.661865,248.822250 
	C2712.339111,243.822372 2716.303223,239.006104 2719.643799,233.790527 
	C2733.333740,212.417053 2735.905518,188.735214 2731.512207,164.532135 
	C2727.571533,142.821335 2716.287842,124.839378 2699.126221,110.479637 
	C2681.522705,95.750420 2661.193359,88.210014 2638.668945,88.151253 
	C2516.508545,87.832550 2394.346436,87.957413 2272.185303,88.113281 
	C2265.366455,88.121979 2258.420410,89.211983 2251.756348,90.758667 
	C2230.876953,95.604675 2213.319824,105.961929 2199.597900,122.774231 
	C2190.989746,133.320618 2184.537598,144.804794 2181.026123,158.642502 
	C2180.980713,159.079605 2180.935303,159.516693 2180.336914,160.225632 
	C2180.280029,160.816528 2180.223145,161.407410 2180.026367,162.642838 
	C2179.980957,163.079819 2179.935547,163.516815 2179.336914,164.225632 
	C2179.280029,164.816528 2179.223145,165.407410 2179.028809,166.729202 
	C2178.982422,167.470734 2178.936279,168.212265 2178.336914,169.225632 
	C2178.280029,169.816513 2178.223145,170.407410 2178.029785,171.886246 
	C2177.983154,174.575439 2177.936768,177.264618 2177.336914,180.225647 
	C2177.280029,180.816528 2177.223145,181.407410 2177.029297,182.871567 
	C2177.772705,206.446518 2184.312744,228.083878 2199.836670,246.177353 
	C2217.865479,267.190216 2241.167969,278.285248 2269.166260,280.168396 
	C2269.166260,306.432281 2269.166260,332.215851 2269.048340,358.670380 
M795.000000,387.500000 
	C795.000000,363.413208 795.000000,339.326447 795.000000,315.182648 
	C776.981995,315.182648 759.686096,315.182648 742.333862,315.182648 
	C739.975891,322.869781 737.664124,330.406342 735.187561,338.479950 
	C731.942322,336.040253 729.124146,333.846863 726.230286,331.758209 
	C706.636658,317.616302 684.550293,310.037872 660.661438,308.157593 
	C647.508850,307.122375 634.338562,308.277283 621.266663,310.890625 
	C598.131714,315.515778 577.512756,325.205658 559.877930,340.758850 
	C544.902405,353.966675 533.431763,369.827057 525.769287,388.461792 
	C519.215881,404.399414 515.678162,420.891296 515.034668,438.023529 
	C514.419800,454.392029 516.234741,470.441223 520.855103,486.271393 
	C526.355469,505.116547 535.214600,522.020630 548.224243,536.631531 
	C560.825256,550.783447 575.638306,562.025818 593.149841,569.671997 
	C607.215515,575.813538 621.842041,580.134033 637.056274,580.749756 
	C650.203857,581.281860 663.559143,580.545105 676.601135,578.755188 
	C690.196411,576.889404 703.136047,572.030640 714.891418,564.608459 
	C721.202148,560.623962 727.428772,556.506226 734.046082,552.220215 
	C735.706482,558.311218 737.745300,564.194336 738.794678,570.248962 
	C739.407959,573.787781 741.074341,574.040710 743.831726,574.027222 
	C756.497620,573.965332 769.164001,574.000000 781.830200,574.000000 
	C786.105896,574.000000 790.381653,574.000000 795.000000,574.000000 
	C795.000000,511.765045 795.000000,450.132538 795.000000,387.500000 
M320.538208,275.029358 
	C317.578491,272.400787 314.657990,269.726471 311.652893,267.150848 
	C288.858368,247.614136 262.167175,239.009415 232.432846,239.002426 
	C191.267502,238.992767 150.102158,239.000000 108.936813,239.000000 
	C107.020950,239.000000 105.105087,239.000000 103.266006,239.000000 
	C103.266006,351.033539 103.266006,462.298828 103.266006,573.672241 
	C127.585205,573.672241 151.637085,573.672241 176.232574,573.672241 
	C176.232574,538.959229 176.232574,504.570648 176.232574,470.000000 
	C189.435867,470.000000 202.096161,470.130920 214.752411,469.961243 
	C226.188873,469.807922 237.715103,470.133453 249.034500,468.813599 
	C269.774139,466.395264 289.114227,459.377228 305.755157,446.519531 
	C322.820496,433.333954 336.150421,417.078949 343.314789,396.324615 
	C349.268311,379.078064 352.100464,361.608856 350.210907,343.190094 
	C348.753418,328.983032 345.792999,315.313385 339.138947,302.861053 
	C334.013794,293.269989 327.131500,284.617859 320.538208,275.029358 
M998.000000,384.500000 
	C998.000000,447.585907 998.000000,510.671814 998.000000,573.752563 
	C1021.992249,573.752563 1045.260254,573.752563 1069.000000,573.752563 
	C1069.000000,571.723572 1069.000000,569.934998 1069.000000,568.146423 
	C1069.000000,524.146484 1069.120972,480.145935 1068.910522,436.146973 
	C1068.860962,425.793396 1070.274902,415.826904 1074.078369,406.290619 
	C1079.713623,392.162109 1088.955933,381.455414 1103.536621,375.693604 
	C1113.871460,371.609650 1124.443481,370.243011 1135.245117,372.111450 
	C1147.489258,374.229370 1157.223145,380.358185 1162.993896,391.878906 
	C1167.703613,401.281311 1169.961304,411.259827 1169.973877,421.705597 
	C1170.032959,470.372162 1170.000000,519.038818 1170.000000,567.705444 
	C1170.000000,569.655518 1170.000000,571.605652 1170.000000,573.679810 
	C1193.902222,573.679810 1217.287842,573.679810 1241.000000,573.679810 
	C1241.000000,571.388611 1241.000000,569.414734 1241.000000,567.440796 
	C1241.000000,517.607544 1241.253540,467.772003 1240.817139,417.942535 
	C1240.711426,405.874176 1239.205933,393.647766 1236.802734,381.806824 
	C1232.406006,360.144409 1221.640747,341.756409 1204.226074,327.873718 
	C1188.457275,315.303253 1169.801758,310.067261 1149.974731,309.090698 
	C1135.946899,308.399811 1122.142578,310.444153 1108.698853,314.675751 
	C1089.766968,320.634888 1073.648071,330.980408 1059.865845,346.061310 
	C1055.838867,336.697723 1051.753052,327.647614 1048.103027,318.425049 
	C1047.063354,315.798004 1045.917847,314.870056 1043.175293,314.943909 
	C1036.679932,315.118835 1030.176758,315.000000 1023.676819,315.000000 
	C1015.236694,314.999969 1006.796631,315.000000 998.000000,315.000000 
	C998.000000,338.231018 998.000000,360.865509 998.000000,384.500000 
M1522.459839,470.954620 
	C1533.739380,526.185608 1566.162231,562.774109 1621.069946,575.569702 
	C1674.985107,588.133911 1722.079102,573.503357 1759.424561,530.144348 
	C1760.648926,545.455322 1761.781006,559.611633 1762.900024,573.603638 
	C1772.726196,573.603638 1781.782227,573.603638 1790.725464,573.603638 
	C1790.725464,487.277618 1790.725464,401.348145 1790.725464,315.303223 
	C1781.708862,315.303223 1772.969482,315.303223 1763.991089,315.303223 
	C1762.556519,330.011505 1761.148804,344.443787 1759.668823,359.617767 
	C1758.213867,358.425079 1757.339722,357.934570 1756.768188,357.206543 
	C1746.348022,343.936676 1733.713867,333.175201 1718.785522,325.459137 
	C1688.479370,309.794525 1656.410400,306.231140 1623.129395,313.020782 
	C1601.560791,317.420959 1582.248169,326.911072 1565.609619,341.132568 
	C1551.103027,353.531738 1539.937134,368.688843 1532.157471,386.344910 
	C1524.379272,403.997894 1520.496582,422.446259 1520.150757,441.564941 
	C1519.978516,451.080597 1521.388184,460.624817 1522.459839,470.954620 
M395.000000,350.500000 
	C395.000000,424.906067 395.000000,499.312164 395.000000,573.601318 
	C419.069336,573.601318 442.451996,573.601318 465.746094,573.601318 
	C465.746094,456.288330 465.746094,339.374268 465.746094,222.310303 
	C442.109589,222.310303 418.728027,222.310303 395.000000,222.310303 
	C395.000000,264.913086 395.000000,307.206543 395.000000,350.500000 
M1997.000000,513.500000 
	C1997.000000,533.583008 1997.000000,553.666077 1997.000000,573.761841 
	C2008.311890,573.761841 2018.911499,573.761841 2030.043457,573.761841 
	C2030.043457,534.146790 2030.043457,494.765350 2030.043457,455.000000 
	C2041.704590,455.000000 2052.855713,455.406586 2063.954346,454.817383 
	C2069.011719,454.548920 2071.852539,456.680023 2074.555176,460.109406 
	C2089.359131,478.894867 2104.138672,497.699493 2118.981689,516.454041 
	C2133.119385,534.317322 2147.277832,552.164673 2161.571289,569.902832 
	C2163.002930,571.679565 2165.403076,573.762512 2167.405029,573.816956 
	C2180.356445,574.169006 2193.322021,573.997253 2207.515625,573.997253 
	C2171.127930,528.572937 2135.340820,483.898254 2099.644531,439.337097 
	C2132.552246,397.855377 2165.015381,356.933899 2198.281494,315.000000 
	C2185.125244,315.000000 2173.795410,315.214203 2162.481445,314.885162 
	C2158.461426,314.768219 2155.704102,315.781982 2153.397217,319.038239 
	C2150.374268,323.305054 2147.077393,327.381042 2143.829590,331.484497 
	C2133.350098,344.724091 2122.829834,357.931793 2112.341797,371.164612 
	C2101.148438,385.287079 2089.777100,399.274719 2078.874756,413.618622 
	C2073.567383,420.600983 2068.317139,425.826843 2058.351562,424.211639 
	C2051.532471,423.106415 2044.389648,424.000000 2037.391479,424.000000 
	C2034.977417,424.000000 2032.563477,424.000000 2029.818237,424.000000 
	C2029.818237,356.945587 2029.818237,290.689453 2029.818237,224.326111 
	C2018.746582,224.326111 2008.029175,224.326111 1997.000000,224.326111 
	C1997.000000,320.601227 1997.000000,416.550629 1997.000000,513.500000 
M932.000000,546.500000 
	C932.000000,469.431580 932.000000,392.363159 932.000000,315.390533 
	C907.944824,315.390533 884.563416,315.390533 861.247437,315.390533 
	C861.247437,401.696564 861.247437,487.611816 861.247437,573.697876 
	C884.876160,573.697876 908.256531,573.697876 932.000000,573.697876 
	C932.000000,564.767151 932.000000,556.133606 932.000000,546.500000 
M1297.501953,271.000000 
	C1326.581177,271.000000 1355.660522,271.000000 1385.242432,271.000000 
	C1385.242432,372.396057 1385.242432,473.090393 1385.242432,573.743103 
	C1396.684937,573.743103 1407.617432,573.743103 1419.053589,573.743103 
	C1419.053589,472.793396 1419.053589,372.099091 1419.053589,270.873047 
	C1453.938110,270.873047 1488.318481,270.873047 1522.611206,270.873047 
	C1522.611206,259.950073 1522.611206,249.564575 1522.611206,239.243851 
	C1441.974854,239.243851 1361.727417,239.243851 1281.302490,239.243851 
	C1281.302490,249.872543 1281.302490,260.255585 1281.302490,271.000000 
	C1286.566650,271.000000 1291.535034,271.000000 1297.501953,271.000000 
M1876.000000,368.500000 
	C1876.000000,436.906006 1876.000000,505.311981 1876.000000,573.598511 
	C1887.408203,573.598511 1898.127686,573.598511 1908.746338,573.598511 
	C1908.746338,456.951508 1908.746338,340.706116 1908.746338,224.313004 
	C1897.773560,224.313004 1887.056396,224.313004 1876.000000,224.313004 
	C1876.000000,272.250122 1876.000000,319.875061 1876.000000,368.500000 
M911.499817,216.000000 
	C894.754211,216.000000 878.008545,216.000000 861.392944,216.000000 
	C861.392944,238.406815 861.392944,260.115173 861.392944,281.740295 
	C885.042358,281.740295 908.297913,281.740295 931.695435,281.740295 
	C931.695435,259.772308 931.695435,238.065125 931.695435,216.000000 
	C925.096985,216.000000 918.798279,216.000000 911.499817,216.000000 
z"/>
<path fill="#288EF4" opacity="1.000000" stroke="none" 
	d="
M2179.890137,163.953796 
	C2179.935547,163.516815 2179.980957,163.079819 2180.382568,162.278717 
	C2180.789062,161.260986 2180.839600,160.607391 2180.890137,159.953796 
	C2180.935303,159.516693 2180.980713,159.079605 2181.438477,158.247314 
	C2182.525391,156.575546 2183.412109,155.366211 2183.840332,154.011826 
	C2187.690186,141.846237 2194.470215,131.202118 2203.125488,122.236267 
	C2222.062012,102.619583 2245.655029,92.161438 2272.966064,92.105812 
	C2393.250977,91.860771 2513.536621,91.953896 2633.821777,92.114647 
	C2641.031982,92.124283 2648.376221,93.187920 2655.423096,94.793434 
	C2676.305176,99.551247 2693.391113,110.453133 2707.458984,126.780609 
	C2733.437988,156.932739 2736.140137,203.479828 2715.613281,236.027908 
	C2712.927002,240.287704 2710.558105,244.747452 2708.041992,249.114532 
	C2692.799072,266.202026 2673.788818,276.174438 2651.089111,278.954865 
	C2645.369385,279.655457 2639.565674,279.953339 2633.800293,279.957489 
	C2548.482422,280.019165 2463.164551,280.012573 2377.846680,279.958435 
	C2374.057373,279.956055 2371.072021,280.826202 2367.944336,283.335815 
	C2349.675537,297.995087 2331.170898,312.361145 2312.704834,326.773529 
	C2299.415039,337.145905 2286.061035,347.436554 2272.056641,357.890747 
	C2270.640137,358.011658 2269.903320,358.005524 2269.166260,357.999390 
	C2269.166260,332.215851 2269.166260,306.432281 2269.166260,280.168396 
	C2241.167969,278.285248 2217.865479,267.190216 2199.836670,246.177353 
	C2184.312744,228.083878 2177.772705,206.446518 2177.384033,182.393082 
	C2177.789307,181.261002 2177.839600,180.607391 2177.890137,179.953796 
	C2177.936768,177.264618 2177.983154,174.575439 2178.384277,171.400421 
	C2178.789307,170.261002 2178.839600,169.607391 2178.890137,168.953796 
	C2178.936279,168.212265 2178.982422,167.470734 2179.383789,166.321899 
	C2179.789062,165.260986 2179.839600,164.607391 2179.890137,163.953796 
M2355.980469,188.059097 
	C2356.055176,176.037918 2351.273438,168.076294 2341.976074,165.522446 
	C2333.759521,163.265579 2326.920410,166.189377 2320.397949,172.079758 
	C2310.608887,178.774719 2311.220947,191.982376 2318.000000,200.308426 
	C2325.631836,209.681564 2339.867188,210.843094 2349.184570,203.048340 
	C2353.305420,199.600830 2356.968506,195.217972 2355.980469,188.059097 
M2438.392334,173.081024 
	C2432.887207,176.695007 2430.224365,185.475128 2432.603516,193.128265 
	C2436.933105,207.052643 2453.526855,212.181763 2465.830811,204.441971 
	C2471.743896,200.722443 2475.132568,195.242325 2474.980225,187.078918 
	C2474.986816,186.246521 2474.956787,185.411987 2475.005859,184.582077 
	C2475.604004,174.399353 2465.196777,164.372040 2455.314697,164.820740 
	C2448.322266,165.138260 2443.774658,168.863907 2438.392334,173.081024 
M2593.738525,188.914627 
	C2593.788818,188.261154 2593.839111,187.607681 2593.979980,186.109192 
	C2593.966064,176.937180 2589.498291,169.571976 2581.933838,166.465912 
	C2575.686035,163.900620 2565.855469,163.588058 2559.704102,171.765793 
	C2559.028076,172.664871 2557.986816,173.289597 2556.386230,174.082764 
	C2555.279785,175.013321 2553.760010,175.725266 2553.133301,176.909637 
	C2548.896973,184.917236 2550.451660,196.308853 2557.145996,202.526184 
	C2566.937500,211.619965 2584.097412,209.296051 2591.205078,198.013855 
	C2592.425781,196.076019 2592.360596,193.328171 2592.985596,190.301773 
	C2593.045654,189.867386 2593.105957,189.432999 2593.738525,188.914627 
z"/>
<path fill="#288EF4" opacity="1.000000" stroke="none" 
	d="
M795.000000,388.000000 
	C795.000000,450.132538 795.000000,511.765045 795.000000,574.000000 
	C790.381653,574.000000 786.105896,574.000000 781.830200,574.000000 
	C769.164001,574.000000 756.497620,573.965332 743.831726,574.027222 
	C741.074341,574.040710 739.407959,573.787781 738.794678,570.248962 
	C737.745300,564.194336 735.706482,558.311218 734.046082,552.220215 
	C727.428772,556.506226 721.202148,560.623962 714.891418,564.608459 
	C703.136047,572.030640 690.196411,576.889404 676.601135,578.755188 
	C663.559143,580.545105 650.203857,581.281860 637.056274,580.749756 
	C621.842041,580.134033 607.215515,575.813538 593.149841,569.671997 
	C575.638306,562.025818 560.825256,550.783447 548.224243,536.631531 
	C535.214600,522.020630 526.355469,505.116547 520.855103,486.271393 
	C516.234741,470.441223 514.419800,454.392029 515.034668,438.023529 
	C515.678162,420.891296 519.215881,404.399414 525.769287,388.461792 
	C533.431763,369.827057 544.902405,353.966675 559.877930,340.758850 
	C577.512756,325.205658 598.131714,315.515778 621.266663,310.890625 
	C634.338562,308.277283 647.508850,307.122375 660.661438,308.157593 
	C684.550293,310.037872 706.636658,317.616302 726.230286,331.758209 
	C729.124146,333.846863 731.942322,336.040253 735.187561,338.479950 
	C737.664124,330.406342 739.975891,322.869781 742.333862,315.182648 
	C759.686096,315.182648 776.981995,315.182648 795.000000,315.182648 
	C795.000000,339.326447 795.000000,363.413208 795.000000,388.000000 
M590.895325,468.620544 
	C595.425537,483.371552 604.722229,494.532684 617.313171,503.026093 
	C633.431824,513.899170 651.363037,516.228882 670.103149,512.944336 
	C691.596863,509.177094 707.658875,497.437775 717.905029,478.180145 
	C725.893433,463.166016 728.048950,446.959198 724.833801,430.405121 
	C721.477478,413.124298 713.136719,398.412872 698.576172,387.957062 
	C681.343079,375.582184 662.340271,371.565857 641.355957,375.880402 
	C624.015930,379.445587 610.142822,388.054443 599.987244,402.348175 
	C585.673950,422.493774 583.619385,444.622559 590.895325,468.620544 
z"/>
<path fill="#288EF4" opacity="1.000000" stroke="none" 
	d="
M320.784363,275.288818 
	C327.131500,284.617859 334.013794,293.269989 339.138947,302.861053 
	C345.792999,315.313385 348.753418,328.983032 350.210907,343.190094 
	C352.100464,361.608856 349.268311,379.078064 343.314789,396.324615 
	C336.150421,417.078949 322.820496,433.333954 305.755157,446.519531 
	C289.114227,459.377228 269.774139,466.395264 249.034500,468.813599 
	C237.715103,470.133453 226.188873,469.807922 214.752411,469.961243 
	C202.096161,470.130920 189.435867,470.000000 176.232574,470.000000 
	C176.232574,504.570648 176.232574,538.959229 176.232574,573.672241 
	C151.637085,573.672241 127.585205,573.672241 103.266006,573.672241 
	C103.266006,462.298828 103.266006,351.033539 103.266006,239.000000 
	C105.105087,239.000000 107.020950,239.000000 108.936813,239.000000 
	C150.102158,239.000000 191.267502,238.992767 232.432846,239.002426 
	C262.167175,239.009415 288.858368,247.614136 311.652893,267.150848 
	C314.657990,269.726471 317.578491,272.400787 320.784363,275.288818 
M207.500000,307.000000 
	C197.087082,307.000000 186.674179,307.000000 176.361313,307.000000 
	C176.361313,339.048096 176.361313,370.402832 176.361313,401.682312 
	C177.039444,401.827484 177.357300,401.954773 177.675323,401.955170 
	C194.650894,401.976868 211.648727,402.501495 228.591995,401.767578 
	C236.236282,401.436493 244.450867,399.976624 251.232376,396.641235 
	C273.614136,385.633026 278.829590,365.645386 275.470886,344.463654 
	C271.698914,320.675446 251.632172,306.415131 227.971878,306.976593 
	C221.484711,307.130554 214.990814,307.000000 207.500000,307.000000 
z"/>
<path fill="#288EF4" opacity="1.000000" stroke="none" 
	d="
M998.000000,384.000000 
	C998.000000,360.865509 998.000000,338.231018 998.000000,315.000000 
	C1006.796631,315.000000 1015.236694,314.999969 1023.676819,315.000000 
	C1030.176758,315.000000 1036.679932,315.118835 1043.175293,314.943909 
	C1045.917847,314.870056 1047.063354,315.798004 1048.103027,318.425049 
	C1051.753052,327.647614 1055.838867,336.697723 1059.865845,346.061310 
	C1073.648071,330.980408 1089.766968,320.634888 1108.698853,314.675751 
	C1122.142578,310.444153 1135.946899,308.399811 1149.974731,309.090698 
	C1169.801758,310.067261 1188.457275,315.303253 1204.226074,327.873718 
	C1221.640747,341.756409 1232.406006,360.144409 1236.802734,381.806824 
	C1239.205933,393.647766 1240.711426,405.874176 1240.817139,417.942535 
	C1241.253540,467.772003 1241.000000,517.607544 1241.000000,567.440796 
	C1241.000000,569.414734 1241.000000,571.388611 1241.000000,573.679810 
	C1217.287842,573.679810 1193.902222,573.679810 1170.000000,573.679810 
	C1170.000000,571.605652 1170.000000,569.655518 1170.000000,567.705444 
	C1170.000000,519.038818 1170.032959,470.372162 1169.973877,421.705597 
	C1169.961304,411.259827 1167.703613,401.281311 1162.993896,391.878906 
	C1157.223145,380.358185 1147.489258,374.229370 1135.245117,372.111450 
	C1124.443481,370.243011 1113.871460,371.609650 1103.536621,375.693604 
	C1088.955933,381.455414 1079.713623,392.162109 1074.078369,406.290619 
	C1070.274902,415.826904 1068.860962,425.793396 1068.910522,436.146973 
	C1069.120972,480.145935 1069.000000,524.146484 1069.000000,568.146423 
	C1069.000000,569.934998 1069.000000,571.723572 1069.000000,573.752563 
	C1045.260254,573.752563 1021.992249,573.752563 998.000000,573.752563 
	C998.000000,510.671814 998.000000,447.585907 998.000000,384.000000 
z"/>
<path fill="#288EF4" opacity="1.000000" stroke="none" 
	d="
M1522.270996,470.555359 
	C1521.388184,460.624817 1519.978516,451.080597 1520.150757,441.564941 
	C1520.496582,422.446259 1524.379272,403.997894 1532.157471,386.344910 
	C1539.937134,368.688843 1551.103027,353.531738 1565.609619,341.132568 
	C1582.248169,326.911072 1601.560791,317.420959 1623.129395,313.020782 
	C1656.410400,306.231140 1688.479370,309.794525 1718.785522,325.459137 
	C1733.713867,333.175201 1746.348022,343.936676 1756.768188,357.206543 
	C1757.339722,357.934570 1758.213867,358.425079 1759.668823,359.617767 
	C1761.148804,344.443787 1762.556519,330.011505 1763.991089,315.303223 
	C1772.969482,315.303223 1781.708862,315.303223 1790.725464,315.303223 
	C1790.725464,401.348145 1790.725464,487.277618 1790.725464,573.603638 
	C1781.782227,573.603638 1772.726196,573.603638 1762.900024,573.603638 
	C1761.781006,559.611633 1760.648926,545.455322 1759.424561,530.144348 
	C1722.079102,573.503357 1674.985107,588.133911 1621.069946,575.569702 
	C1566.162231,562.774109 1533.739380,526.185608 1522.270996,470.555359 
M1667.428589,343.000000 
	C1657.563110,341.208069 1647.822266,342.471802 1638.040039,343.947449 
	C1619.592773,346.730225 1603.257080,354.312042 1589.279785,366.378204 
	C1565.798218,386.648956 1555.167358,413.158417 1554.130493,443.700684 
	C1553.904175,450.365570 1554.502930,457.303864 1556.186768,463.732513 
	C1558.936401,474.230865 1561.870361,484.912018 1566.602295,494.599884 
	C1572.128052,505.913116 1580.108276,515.733887 1590.184326,523.856995 
	C1607.594116,537.892578 1627.329956,545.499329 1649.471558,546.933533 
	C1659.854980,547.606201 1670.118286,546.478699 1680.347290,544.127258 
	C1710.370361,537.225464 1732.238281,519.785828 1745.906982,492.617645 
	C1756.565918,471.431763 1759.394287,448.768799 1755.085571,425.202576 
	C1750.473877,399.979706 1738.878662,379.023376 1718.609619,363.175446 
	C1703.844482,351.630920 1686.902954,345.233032 1667.428589,343.000000 
z"/>
<path fill="#288EF4" opacity="1.000000" stroke="none" 
	d="
M395.000000,350.000000 
	C395.000000,307.206543 395.000000,264.913086 395.000000,222.310303 
	C418.728027,222.310303 442.109589,222.310303 465.746094,222.310303 
	C465.746094,339.374268 465.746094,456.288330 465.746094,573.601318 
	C442.451996,573.601318 419.069336,573.601318 395.000000,573.601318 
	C395.000000,499.312164 395.000000,424.906067 395.000000,350.000000 
z"/>
<path fill="#288EF4" opacity="1.000000" stroke="none" 
	d="
M1997.000000,513.000000 
	C1997.000000,416.550629 1997.000000,320.601227 1997.000000,224.326111 
	C2008.029175,224.326111 2018.746582,224.326111 2029.818237,224.326111 
	C2029.818237,290.689453 2029.818237,356.945587 2029.818237,424.000000 
	C2032.563477,424.000000 2034.977417,424.000000 2037.391479,424.000000 
	C2044.389648,424.000000 2051.532471,423.106415 2058.351562,424.211639 
	C2068.317139,425.826843 2073.567383,420.600983 2078.874756,413.618622 
	C2089.777100,399.274719 2101.148438,385.287079 2112.341797,371.164612 
	C2122.829834,357.931793 2133.350098,344.724091 2143.829590,331.484497 
	C2147.077393,327.381042 2150.374268,323.305054 2153.397217,319.038239 
	C2155.704102,315.781982 2158.461426,314.768219 2162.481445,314.885162 
	C2173.795410,315.214203 2185.125244,315.000000 2198.281494,315.000000 
	C2165.015381,356.933899 2132.552246,397.855377 2099.644531,439.337097 
	C2135.340820,483.898254 2171.127930,528.572937 2207.515625,573.997253 
	C2193.322021,573.997253 2180.356445,574.169006 2167.405029,573.816956 
	C2165.403076,573.762512 2163.002930,571.679565 2161.571289,569.902832 
	C2147.277832,552.164673 2133.119385,534.317322 2118.981689,516.454041 
	C2104.138672,497.699493 2089.359131,478.894867 2074.555176,460.109406 
	C2071.852539,456.680023 2069.011719,454.548920 2063.954346,454.817383 
	C2052.855713,455.406586 2041.704590,455.000000 2030.043457,455.000000 
	C2030.043457,494.765350 2030.043457,534.146790 2030.043457,573.761841 
	C2018.911499,573.761841 2008.311890,573.761841 1997.000000,573.761841 
	C1997.000000,553.666077 1997.000000,533.583008 1997.000000,513.000000 
z"/>
<path fill="#288EF4" opacity="1.000000" stroke="none" 
	d="
M932.000000,547.000000 
	C932.000000,556.133606 932.000000,564.767151 932.000000,573.697876 
	C908.256531,573.697876 884.876160,573.697876 861.247437,573.697876 
	C861.247437,487.611816 861.247437,401.696564 861.247437,315.390533 
	C884.563416,315.390533 907.944824,315.390533 932.000000,315.390533 
	C932.000000,392.363159 932.000000,469.431580 932.000000,547.000000 
z"/>
<path fill="#288EF4" opacity="1.000000" stroke="none" 
	d="
M1297.002686,271.000000 
	C1291.535034,271.000000 1286.566650,271.000000 1281.302490,271.000000 
	C1281.302490,260.255585 1281.302490,249.872543 1281.302490,239.243851 
	C1361.727417,239.243851 1441.974854,239.243851 1522.611206,239.243851 
	C1522.611206,249.564575 1522.611206,259.950073 1522.611206,270.873047 
	C1488.318481,270.873047 1453.938110,270.873047 1419.053589,270.873047 
	C1419.053589,372.099091 1419.053589,472.793396 1419.053589,573.743103 
	C1407.617432,573.743103 1396.684937,573.743103 1385.242432,573.743103 
	C1385.242432,473.090393 1385.242432,372.396057 1385.242432,271.000000 
	C1355.660522,271.000000 1326.581177,271.000000 1297.002686,271.000000 
z"/>
<path fill="#288EF4" opacity="1.000000" stroke="none" 
	d="
M1876.000000,368.000000 
	C1876.000000,319.875061 1876.000000,272.250122 1876.000000,224.313004 
	C1887.056396,224.313004 1897.773560,224.313004 1908.746338,224.313004 
	C1908.746338,340.706116 1908.746338,456.951508 1908.746338,573.598511 
	C1898.127686,573.598511 1887.408203,573.598511 1876.000000,573.598511 
	C1876.000000,505.311981 1876.000000,436.906006 1876.000000,368.000000 
z"/>
<path fill="#288EF4" opacity="1.000000" stroke="none" 
	d="
M911.999756,216.000000 
	C918.798279,216.000000 925.096985,216.000000 931.695435,216.000000 
	C931.695435,238.065125 931.695435,259.772308 931.695435,281.740295 
	C908.297913,281.740295 885.042358,281.740295 861.392944,281.740295 
	C861.392944,260.115173 861.392944,238.406815 861.392944,216.000000 
	C878.008545,216.000000 894.754211,216.000000 911.999756,216.000000 
z"/>
<path fill="#288EF4" opacity="1.000000" stroke="none" 
	d="
M2708.352051,248.968384 
	C2710.558105,244.747452 2712.927002,240.287704 2715.613281,236.027908 
	C2736.140137,203.479828 2733.437988,156.932739 2707.458984,126.780609 
	C2693.391113,110.453133 2676.305176,99.551247 2655.423096,94.793434 
	C2648.376221,93.187920 2641.031982,92.124283 2633.821777,92.114647 
	C2513.536621,91.953896 2393.250977,91.860771 2272.966064,92.105812 
	C2245.655029,92.161438 2222.062012,102.619583 2203.125488,122.236267 
	C2194.470215,131.202118 2187.690186,141.846237 2183.840332,154.011826 
	C2183.412109,155.366211 2182.525391,156.575546 2181.508545,157.924927 
	C2184.537598,144.804794 2190.989746,133.320618 2199.597900,122.774231 
	C2213.319824,105.961929 2230.876953,95.604675 2251.756348,90.758667 
	C2258.420410,89.211983 2265.366455,88.121979 2272.185303,88.113281 
	C2394.346436,87.957413 2516.508545,87.832550 2638.668945,88.151253 
	C2661.193359,88.210014 2681.522705,95.750420 2699.126221,110.479637 
	C2716.287842,124.839378 2727.571533,142.821335 2731.512207,164.532135 
	C2735.905518,188.735214 2733.333740,212.417053 2719.643799,233.790527 
	C2716.303223,239.006104 2712.339111,243.822372 2708.352051,248.968384 
z"/>
<path fill="#288EF4" opacity="1.000000" stroke="none" 
	d="
M2269.107422,358.334900 
	C2269.903320,358.005524 2270.640137,358.011658 2271.745605,358.030151 
	C2271.092041,358.251831 2270.070068,358.461121 2269.107422,358.334900 
z"/>
<path fill="#288EF4" opacity="1.000000" stroke="none" 
	d="
M2177.613525,180.089722 
	C2177.839600,180.607391 2177.789307,181.261002 2177.452637,181.956451 
	C2177.223145,181.407410 2177.280029,180.816528 2177.613525,180.089722 
z"/>
<path fill="#288EF4" opacity="1.000000" stroke="none" 
	d="
M2178.613525,169.089722 
	C2178.839600,169.607391 2178.789307,170.261002 2178.452637,170.956451 
	C2178.223145,170.407410 2178.280029,169.816513 2178.613525,169.089722 
z"/>
<path fill="#288EF4" opacity="1.000000" stroke="none" 
	d="
M2179.613525,164.089706 
	C2179.839600,164.607391 2179.789062,165.260986 2179.452637,165.956436 
	C2179.223145,165.407410 2179.280029,164.816528 2179.613525,164.089706 
z"/>
<path fill="#288EF4" opacity="1.000000" stroke="none" 
	d="
M2180.613525,160.089722 
	C2180.839600,160.607391 2180.789062,161.260986 2180.452637,161.956451 
	C2180.223145,161.407410 2180.280029,160.816528 2180.613525,160.089722 
z"/>
<path fill="#FFFFFF" opacity="1.000000" stroke="none" 
	d="
M2557.114990,174.041534 
	C2557.986816,173.289597 2559.028076,172.664871 2559.704102,171.765793 
	C2565.855469,163.588058 2575.686035,163.900620 2581.933838,166.465912 
	C2589.498291,169.571976 2593.966064,176.937180 2593.658203,186.667603 
	C2593.279785,187.816864 2593.222900,188.407745 2593.166016,188.998611 
	C2593.105957,189.432999 2593.045654,189.867386 2592.637207,190.794281 
	C2588.157959,200.473740 2580.184814,204.533463 2573.402588,203.791504 
	C2565.165527,202.890411 2557.896240,199.575485 2555.704346,188.884048 
	C2554.750000,184.228577 2556.560303,179.006363 2557.114990,174.041534 
z"/>
<path fill="#FFFFFF" opacity="1.000000" stroke="none" 
	d="
M2439.114990,173.041550 
	C2443.774658,168.863907 2448.322266,165.138260 2455.314697,164.820740 
	C2465.196777,164.372040 2475.604004,174.399353 2475.005859,184.582077 
	C2474.956787,185.411987 2474.986816,186.246521 2474.624512,187.701904 
	C2471.247070,199.446121 2464.103271,203.498428 2455.495605,203.728912 
	C2447.692139,203.937881 2439.603027,199.065521 2436.508545,189.040756 
	C2434.714355,183.228180 2437.133789,178.191559 2439.114990,173.041550 
z"/>
<path fill="#FFFFFF" opacity="1.000000" stroke="none" 
	d="
M2321.114746,172.041656 
	C2326.920410,166.189377 2333.759521,163.265579 2341.976074,165.522446 
	C2351.273438,168.076294 2356.055176,176.037918 2355.626465,188.689728 
	C2352.891846,197.627625 2344.027100,204.610580 2336.119141,203.936478 
	C2327.216553,203.177567 2320.023682,196.422638 2317.809082,188.610901 
	C2315.979492,182.155746 2318.665771,177.281860 2321.114746,172.041656 
z"/>
<path fill="#288EF4" opacity="1.000000" stroke="none" 
	d="
M2320.756348,172.060699 
	C2318.665771,177.281860 2315.979492,182.155746 2317.809082,188.610901 
	C2320.023682,196.422638 2327.216553,203.177567 2336.119141,203.936478 
	C2344.027100,204.610580 2352.891846,197.627625 2355.580566,189.137527 
	C2356.968506,195.217972 2353.305420,199.600830 2349.184570,203.048340 
	C2339.867188,210.843094 2325.631836,209.681564 2318.000000,200.308426 
	C2311.220947,191.982376 2310.608887,178.774719 2320.756348,172.060699 
z"/>
<path fill="#288EF4" opacity="1.000000" stroke="none" 
	d="
M2438.753662,173.061279 
	C2437.133789,178.191559 2434.714355,183.228180 2436.508545,189.040756 
	C2439.603027,199.065521 2447.692139,203.937881 2455.495605,203.728912 
	C2464.103271,203.498428 2471.247070,199.446121 2474.579102,188.139801 
	C2475.132568,195.242325 2471.743896,200.722443 2465.830811,204.441971 
	C2453.526855,212.181763 2436.933105,207.052643 2432.603516,193.128265 
	C2430.224365,185.475128 2432.887207,176.695007 2438.753662,173.061279 
z"/>
<path fill="#288EF4" opacity="1.000000" stroke="none" 
	d="
M2556.750488,174.062164 
	C2556.560303,179.006363 2554.750000,184.228577 2555.704346,188.884048 
	C2557.896240,199.575485 2565.165527,202.890411 2573.402588,203.791504 
	C2580.184814,204.533463 2588.157959,200.473740 2592.589111,191.120621 
	C2592.360596,193.328171 2592.425781,196.076019 2591.205078,198.013855 
	C2584.097412,209.296051 2566.937500,211.619965 2557.145996,202.526184 
	C2550.451660,196.308853 2548.896973,184.917236 2553.133301,176.909637 
	C2553.760010,175.725266 2555.279785,175.013321 2556.750488,174.062164 
z"/>
<path fill="#288EF4" opacity="1.000000" stroke="none" 
	d="
M2593.452148,188.956619 
	C2593.222900,188.407745 2593.279785,187.816864 2593.612793,187.090103 
	C2593.839111,187.607681 2593.788818,188.261154 2593.452148,188.956619 
z"/>
<path fill="#FFFFFF" opacity="1.000000" stroke="none" 
	d="
M590.673340,468.282410 
	C583.619385,444.622559 585.673950,422.493774 599.987244,402.348175 
	C610.142822,388.054443 624.015930,379.445587 641.355957,375.880402 
	C662.340271,371.565857 681.343079,375.582184 698.576172,387.957062 
	C713.136719,398.412872 721.477478,413.124298 724.833801,430.405121 
	C728.048950,446.959198 725.893433,463.166016 717.905029,478.180145 
	C707.658875,497.437775 691.596863,509.177094 670.103149,512.944336 
	C651.363037,516.228882 633.431824,513.899170 617.313171,503.026093 
	C604.722229,494.532684 595.425537,483.371552 590.673340,468.282410 
z"/>
<path fill="#FFFFFF" opacity="1.000000" stroke="none" 
	d="
M208.000000,307.000000 
	C214.990814,307.000000 221.484711,307.130554 227.971878,306.976593 
	C251.632172,306.415131 271.698914,320.675446 275.470886,344.463654 
	C278.829590,365.645386 273.614136,385.633026 251.232376,396.641235 
	C244.450867,399.976624 236.236282,401.436493 228.591995,401.767578 
	C211.648727,402.501495 194.650894,401.976868 177.675323,401.955170 
	C177.357300,401.954773 177.039444,401.827484 176.361313,401.682312 
	C176.361313,370.402832 176.361313,339.048096 176.361313,307.000000 
	C186.674179,307.000000 197.087082,307.000000 208.000000,307.000000 
z"/>
<path fill="#FFFFFF" opacity="1.000000" stroke="none" 
	d="
M1667.886475,343.000061 
	C1686.902954,345.233032 1703.844482,351.630920 1718.609619,363.175446 
	C1738.878662,379.023376 1750.473877,399.979706 1755.085571,425.202576 
	C1759.394287,448.768799 1756.565918,471.431763 1745.906982,492.617645 
	C1732.238281,519.785828 1710.370361,537.225464 1680.347290,544.127258 
	C1670.118286,546.478699 1659.854980,547.606201 1649.471558,546.933533 
	C1627.329956,545.499329 1607.594116,537.892578 1590.184326,523.856995 
	C1580.108276,515.733887 1572.128052,505.913116 1566.602295,494.599884 
	C1561.870361,484.912018 1558.936401,474.230865 1556.186768,463.732513 
	C1554.502930,457.303864 1553.904175,450.365570 1554.130493,443.700684 
	C1555.167358,413.158417 1565.798218,386.648956 1589.279785,366.378204 
	C1603.257080,354.312042 1619.592773,346.730225 1638.040039,343.947449 
	C1647.822266,342.471802 1657.563110,341.208069 1667.886475,343.000061 
z"/>
</svg>